FFmpeg version SVN-r25716, Copyright (c) 2000-2010 the FFmpeg developers  built on Nov 10 2010 12:23:18 with gcc 4.1.2 20080704 (Red Hat 4.1.2-48)  configuration: --enable-libmp3lame --enable-shared --disable-mmx --arch=x86_64  libavutil     50.33. 0 / 50.33. 0  libavcore      0.12. 1 /  0.12. 1  libavcodec    52.94. 4 / 52.94. 4  libavformat   52.84. 0 / 52.84. 0  libavdevice   52. 2. 2 / 52. 2. 2  libavfilter    1.59. 0 /  1.59. 0  libswscale     0.12. 0 /  0.12. 0Seems stream 0 codec frame rate differs from container frame rate: 600.00 (600/1) -> 15.00 (15/1)Input #0, mov,mp4,m4a,3gp,3g2,mj2, from '/RAID10/data/converted_video_files/42162.mov':  Metadata:    major_brand     : qt      minor_version   : 537199360    compatible_brands: qt    Duration: 00:00:11.93, start: 0.000000, bitrate: 8619 kb/s    Stream #0.0(eng): Video: mjpeg, yuvj420p, 1388x1040 [PAR 1:1 DAR 347:260], 8618 kb/s, 15 fps, 15 tbr, 600 tbn, 600 tbc[buffer @ 0x70853d0] w:1388 h:1040 pixfmt:yuvj420p[ffsink @ 0x7084aa0] auto-inserting filter 'auto-inserted scaler 0' between the filter 'src' and the filter 'out'[scale @ 0x7218bb0] w:1388 h:1040 fmt:yuvj420p -> w:1388 h:1040 fmt:yuv420p flags:0x4Output #0, flv, to '/RAID10/data/converted_video_files/42162.flv':  Metadata:    encoder         : Lavf52.84.0    Stream #0.0(eng): Video: flv, yuv420p, 1388x1040 [PAR 1:1 DAR 347:260], q=2-31, 600 kb/s, 1k tbn, 24 tbcStream mapping:  Stream #0.0 -> #0.0Press [q] to stop encodingframe=    7 fps=  0 q=9.4 size=     410kB time=0.46 bitrate=7311.2kbits/s    frame=   13 fps= 12 q=21.6 size=     554kB time=0.83 bitrate=5445.8kbits/s    frame=   22 fps= 13 q=31.0 size=     654kB time=1.46 bitrate=3670.2kbits/s    frame=   31 fps= 14 q=31.0 size=     713kB time=2.04 bitrate=2859.2kbits/s    frame=   40 fps= 13 q=31.0 size=     855kB time=2.62 bitrate=2668.7kbits/s    frame=   42 fps= 13 q=31.0 size=     906kB time=2.75 bitrate=2698.2kbits/s    frame=   49 fps= 13 q=24.8 size=    1015kB time=3.25 bitrate=2557.5kbits/s    frame=   56 fps= 13 q=31.0 size=    1029kB time=3.71 bitrate=2274.1kbits/s    frame=   65 fps= 14 q=31.0 size=    1151kB time=4.29 bitrate=2198.0kbits/s    frame=   74 fps= 14 q=31.0 size=    1253kB time=4.92 bitrate=2088.5kbits/s    frame=   83 fps= 14 q=31.0 size=    1363kB time=5.50 bitrate=2030.7kbits/s    frame=   92 fps= 14 q=31.0 size=    1508kB time=6.12 bitrate=2017.5kbits/s    frame=  100 fps= 14 q=31.0 size=    1665kB time=6.62 bitrate=2058.7kbits/s    frame=  109 fps= 15 q=24.8 size=    1766kB time=7.25 bitrate=1995.0kbits/s    frame=  118 fps= 15 q=31.0 size=    1880kB time=7.83 bitrate=1966.3kbits/s    frame=  128 fps= 15 q=31.0 size=    2001kB time=8.50 bitrate=1928.3kbits/s    frame=  137 fps= 15 q=31.0 size=    2123kB time=9.12 bitrate=1905.9kbits/s    frame=  145 fps= 15 q=24.8 size=    2208kB time=9.62 bitrate=1879.6kbits/s    frame=  153 fps= 15 q=31.0 size=    2291kB time=10.17 bitrate=1845.8kbits/s    frame=  163 fps= 15 q=31.0 size=    2361kB time=10.83 bitrate=1785.2kbits/s    frame=  173 fps= 16 q=31.0 size=    2466kB time=11.50 bitrate=1757.0kbits/s    frame=  179 fps= 16 q=31.0 Lsize=    2498kB time=11.92 bitrate=1717.1kbits/s    video:2495kB audio:0kB global headers:0kB muxing overhead 0.120332%